<svg xmlns="http://www.w3.org/2000/svg" style="position:absolute; width: 0; height: 0"><symbol viewBox="0 0 586.1 729.5" id="icon-ag-graph"><style><![CDATA[.st0{stroke:#000;stroke-miterlimit:10}.st0,.st1{fill:none}]]></style><path class="st0" d="M1 586.3L402.4 1.1M183.2.2l316.3 621.3M131 77.5L447.4 698M418.6 216.2l94-136M278.2 438.6L512.1 95.1M231 486.1l56.1-83M251.8 729.3l333.9-514.4M129.7 411.7l60.1-85.6M140.2 411.8l59-85.8M150.3 411.8l58.9-85.7M160.9 411.9l57.7-85.8M170 411.9l59.4-85.7M180.2 412l59.1-85.8"></path><circle class="st1" cx="505.8" cy="93.5" r="5.1"></circle><ellipse class="st0" cx="429.9" cy="240.1" rx="5" ry="5"></ellipse><ellipse class="st0" cx="441" cy="223.9" rx="5" ry="5"></ellipse><ellipse class="st0" cx="418.6" cy="256.6" rx="5" ry="5"></ellipse><ellipse class="st0" cx="515.5" cy="76.1" rx="5" ry="5"></ellipse><circle class="st0" cx="433.4" cy="210.7" r="68.6"></circle><ellipse class="st0" transform="rotate(-52.345 222.898 385.993)" cx="222.9" cy="386" rx="5" ry="5"></ellipse><circle class="st0" cx="253.7" cy="418.8" r="217"></circle><path class="st0" d="M212.3 671.9L1 364.7h422.4z"></path><circle class="st0" cx="345.7" cy="222.1" r="10"></circle><path class="st0" d="M350.2 236.4c-1.4.4-2.9.7-4.5.7-8.3 0-15-6.7-15-15s6.7-15 15-15c7.9 0 14.4 6.1 15 13.9"></path><circle class="st0" cx="40.3" cy="457.4" r="10"></circle><path class="st0" d="M55 460.5c-.3 1.5-.8 2.9-1.6 4.3-4.1 7.2-13.2 9.8-20.4 5.7-7.2-4.1-9.8-13.2-5.7-20.4 3.9-6.9 12.4-9.6 19.5-6.2"></path><g><circle class="st0" cx="422.9" cy="554.6" r="10"></circle><path class="st0" d="M408.7 559.4c-.5-1.4-.7-2.9-.8-4.5-.2-8.3 6.4-15.1 14.7-15.3 8.3-.2 15.1 6.4 15.3 14.7.1 7.9-5.9 14.5-13.6 15.2"></path></g><g><circle class="st0" cx="212.3" cy="532.4" r="40"></circle><path class="st0" d="M219.3 503.3c13.2 3.2 22.9 15 22.9 29.2 0 16.6-13.4 30-30 30-10.1 0-19-5-24.5-12.6"></path><path class="st0" d="M238.9 490.1c14.1 8.9 23.4 24.5 23.4 42.3 0 27.6-22.4 50-50 50s-50-22.4-50-50c0-4.1.5-8.2 1.4-12"></path></g></symbol><symbol viewBox="0 0 50 50" id="icon-amazon"><path d="M14 4C8.489 4 4 8.489 4 14v22c0 5.511 4.489 10 10 10h22c5.511 0 10-4.489 10-10V14c0-5.511-4.489-10-10-10H14zm0 2h22c4.43 0 8 3.57 8 8v22c0 4.43-3.57 8-8 8H14c-4.43 0-8-3.57-8-8V14c0-4.43 3.57-8 8-8zm20 12.01a1 1 0 0 0 0 2 1 1 0 0 0 0-2zm-24.75 3v7h1.5v-5.14c.493-.12.987-.234 1.477-.364.5-.136.975.234 1.017.66l.008 4.844h1.5l.002-2.5.006-1.25-.006-.625-.004-.317a2.47 2.47 0 0 0-.06-.433c.512-.124 1.027-.244 1.537-.38.5-.136.975.236 1.017.661l.008 4.844h1.5l.002-2.5.006-1.25-.006-.625-.004-.317a2.223 2.223 0 0 0-1.158-1.879 2.179 2.179 0 0 0-1.733-.14c-.566.193-1.127.402-1.69.61a2.178 2.178 0 0 0-.577-.47 2.179 2.179 0 0 0-1.733-.14c-.371.127-.74.266-1.109.4v-.69h-1.5zm12.5 0l-1.498.002.002 2.42c-.01.823-.017 1.577.01 2.457.043.614.376 1.173.818 1.529.445.361.991.55 1.533.586a2.776 2.776 0 0 0 1.516-.344c.04-.02.079-.045.119-.066v.234h1.5v-6.816h-1.5v5.353c-.212.074-.425.143-.633.225-.352.149-.579.174-.885.14-.574-.07-1.011-.527-.976-.918.009-.732.012-1.592-.002-2.382l-.004-2.42zm11.5 0v7h1.5v-7h-1.5zm5.975.004c-.355.02-.71.1-1.036.24-1.32.578-1.969 1.937-1.939 3.148.01.568.1 1.163.35 1.75.26.57.72 1.137 1.35 1.463.62.335 1.32.43 1.95.383.38-.037.75-.103 1.1-.215V26.76c-.89.14-1.77.14-2.33-.242-.63-.391-.93-1.23-.92-2.133-.02-.82.38-1.603 1.06-1.977.64-.345 1.47-.205 2.19.29v-1.231c-.23-.14-.47-.25-.74-.334a3.025 3.025 0 0 0-1.035-.12zm-9.52.011a3.707 3.707 0 0 0-.785.157c-.883.278-1.515.873-1.602 1.482-.162 1.14.672 1.806 1.082 1.99.41.222.78.32 1.12.416.69.165 1.128.352 1.287.598a.675.675 0 0 1 .123.418c0 .18-.04.341-.23.457-.39.213-1.06.29-1.67.223-.61-.058-1.39-.33-2.03-.59v1.074c.59.367 1.22.562 1.87.678.77.106 1.56.174 2.45-.213.43-.174.951-.563.951-1.621 0-1.104-.8-1.59-1.2-1.783-.4-.203-.77-.3-1.11-.407-.33-.107-1.201-.249-1.201-1 0-.313.33-.487.58-.564.84-.28 1.83-.065 2.66.361v-1.238a4.447 4.447 0 0 0-2.295-.438zm9.899 9.985c-1.111 0-2.43.28-3.403.98-.278.21-.278.49.069.49 1.11-.14 3.611-.49 4.097.14.417.56-.485 2.942-.902 4.062-.14.35.14.419.418.209 1.875-1.611 2.361-4.903 2.013-5.323-.208-.349-1.181-.558-2.292-.558zm-30.641.761a.249.249 0 0 0-.147.088.253.253 0 0 0 .038.354c2.06 1.668 4.39 2.94 6.857 3.93 2.474.958 5.097 1.614 7.785 1.794a25.292 25.292 0 0 0 7.986-.73c2.597-.672 5.072-1.705 7.286-3.275a.5.5 0 0 0-.498-.862l-.04.018c-2.265 1.043-4.727 1.775-7.17 2.28-2.451.51-4.964.703-7.449.616-2.49-.1-4.965-.597-7.398-1.289-2.414-.74-4.82-1.671-7.068-2.888l-.016-.01a.248.248 0 0 0-.166-.026z"></path></symbol><symbol viewBox="0 0 50 50" id="icon-bandcamp"><path d="M8.596 17L0 33h18.404L27 17H8.596zM27 17v15.693h2.373v-1.56h.043C30.164 32.628 31.814 33 33.352 33c3.364 0 4.902-2.88 4.902-5.934 0-3.319-1.738-6.045-5.32-6.045-1.275 0-2.704.683-3.385 1.782h-.043V17H27zM9.791 19h13.863L17.21 31H3.346L9.79 19zm35.088 2.021c-3.737 0-5.606 2.684-5.606 6.112 0 3.34 1.957 5.867 5.518 5.867 2.923 0 4.747-1.627 5.209-4.572h-2.506c-.243 1.627-1.253 2.595-2.703 2.595-2.176 0-3.012-2-3.012-3.89 0-3.45 1.824-4.133 3.121-4.133 1.385 0 2.396.749 2.594 2.133H50c-.241-2.791-2.484-4.112-5.121-4.112zM32.605 23c2.064 0 3.142 1.955 3.143 4.021 0 1.978-.857 4-3.143 4-2.022 0-3.187-1.715-3.187-4 0-2.417 1.078-4.021 3.187-4.021z"></path></symbol><symbol viewBox="0 0 21 14" id="icon-behance"><path fill-rule="evenodd" d="M7.773 9.092a1.646 1.646 0 0 1-.836 1.659 2.585 2.585 0 0 1-1.3.242H2.925v-3.53h2.77a2.38 2.38 0 0 1 1.241.212c.55.247.886.815.837 1.417zm9.609-3.438c.368.43.581.972.606 1.538h-4.1a3.249 3.249 0 0 1 .634-1.478 1.774 1.774 0 0 1 1.443-.543 2.238 2.238 0 0 1 1.417.479v.004zM.011.013v13.3h5.714c.61.001 1.217-.05 1.818-.151.512-.15.992-.396 1.413-.724.374-.275.689-.624.924-1.025.375-.64.574-1.37.577-2.112a3.852 3.852 0 0 0-.52-1.96A3.07 3.07 0 0 0 8.5 6.136c.372-.16.692-.422.923-.754.45-.551.677-1.25.635-1.961a3.49 3.49 0 0 0-.577-1.99A3.782 3.782 0 0 0 6.163.013H.011zm12.7 4.4a5.392 5.392 0 0 0-1.27 3.8 4.858 4.858 0 0 0 1.356 3.861 5.031 5.031 0 0 0 3.232 1.117 4.279 4.279 0 0 0 3.434-1.358c.461-.468.764-1.07.865-1.719H17.9a1.323 1.323 0 0 1-.49.633 2.254 2.254 0 0 1-2.626.061 2.208 2.208 0 0 1-.952-1.991H20.5c.003-.625-.036-1.25-.115-1.87a5.612 5.612 0 0 0-.721-1.991 4.153 4.153 0 0 0-1.559-1.418 5.421 5.421 0 0 0-2.135-.422 4.225 4.225 0 0 0-3.262 1.301l.003-.004zm.663-3.861v1.357h5.079V.552h-5.079zM6.997 4.896a2.6 2.6 0 0 1-1.356.331H2.929V2.301h2.4a5 5 0 0 1 1.5.212c.474.219.753.718.693 1.236.047.451-.155.892-.528 1.151l.003-.004z"></path></symbol><symbol viewBox="0 0 50 50" id="icon-deezer"><path d="M39 14v2h8v-2zm-18 3v2h8v-2zm18 0v2h8v-2zm-18 3v2h8v-2zm18 0v2h8v-2zM3 23v2h8v-2zm18 0v2h8v-2zm9 0v2h8v-2zm9 0v2h8v-2zM3 26v2h8v-2zm18 0v2h8v-2zm9 0v2h8v-2zm9 0v2h8v-2zM3 29v2h8v-2zm9 0v2h8v-2zm9 0v2h8v-2zm9 0v2h8v-2zm9 0v2h8v-2zM3 32v2h8v-2zm9 0v2h8v-2zm9 0v2h8v-2zm9 0v2h8v-2zm9 0v2h8v-2zM3 35v2h8v-2zm9 0v2h8v-2zm9 0v2h8v-2zm9 0v2h8v-2zm9 0v2h8v-2z"></path></symbol><symbol viewBox="0 0 7 15" id="icon-facebook"><path fill-rule="evenodd" d="M4.868 15H1.826V7.5H0V5h1.825V3.48c0-2.082.616-3.472 3-3.472h1.862v2.5H5.572c-.93 0-.992.455-.992 1.121v1.377h2.252l-.263 2.5h-1.7V15h-.001z"></path></symbol><symbol viewBox="0 0 50 50" id="icon-googleplay"><path d="M6.781 2c-.011.004-.02.027-.031.031-.027.004-.066-.008-.094 0-.21.024-.406.11-.562.25C5.422 2.648 5 3.402 5 4.22V46c0 .621.273 1.273.781 1.656.235.262.59.38.938.313.457.023.937-.078 1.343-.313.848-.492 18.157-10.5 18.157-10.5l9.031-5.218a.466.466 0 0 0 .063-.032l.124-.062s.122-.063.126-.063l.03-.031 8.688-5c.703-.406 1.262-1.066 1.25-1.875-.011-.809-.582-1.438-1.218-1.781a372.197 372.197 0 0 1-4.75-2.719c-2.118-1.227-4.126-2.406-4.126-2.406l-9.218-5.313-17.75-10.25c-.348-.199-.742-.36-1.125-.406a1.939 1.939 0 0 0-.563 0zM7 4.688l20.375 20.218L7 45.125zm4.75 1.906c5.086 2.937 13.469 7.781 13.469 7.781l8.062 4.656-4.5 4.469zm23.313 13.468c.48.282 1.703.993 3.5 2.032 2.117 1.226 4.289 2.468 4.812 2.75.05.027.035.043.063.062-.04.028-.051.035-.157.094-.96.555-7.191 4.172-8.187 4.75l-4.907-4.844zm-6.282 6.22l4.532 4.5-8.094 4.655s-8.164 4.711-13.438 7.75z"></path></symbol><symbol viewBox="0 0 16 16" id="icon-instagram"><g fill-rule="evenodd"><path d="M8.064 3.984c-2.24 0-4.096 1.789-4.096 4.016 0 2.227 1.824 4.016 4.096 4.016 2.272 0 4.096-1.82 4.096-4.016 0-2.196-1.856-4.016-4.096-4.016zm0 6.589C6.624 10.573 5.44 9.412 5.44 8s1.184-2.573 2.624-2.573c1.44 0 2.624 1.161 2.624 2.573s-1.184 2.573-2.624 2.573z"></path><ellipse cx="12.32" cy="3.89" rx=".928" ry=".91"></ellipse><path d="M14.72 1.537C13.888.69 12.704.251 11.36.251H4.768C1.984.251.128 2.071.128 4.8v6.431c0 1.35.448 2.51 1.344 3.357.864.816 2.016 1.224 3.328 1.224h6.528c1.376 0 2.528-.44 3.36-1.224.864-.815 1.312-1.976 1.312-3.325V4.8c0-1.318-.448-2.447-1.28-3.263zm-.192 9.726c0 .972-.288 1.757-.864 2.29-.576.533-1.376.816-2.336.816H4.8c-.96 0-1.76-.283-2.336-.816-.576-.565-.864-1.35-.864-2.322V4.8c0-.941.288-1.725.864-2.29.544-.534 1.376-.816 2.336-.816h6.592c.96 0 1.76.282 2.336.847.544.565.864 1.35.864 2.259v6.463h-.064z"></path></g></symbol><symbol viewBox="0 0 50 50" id="icon-itunes"><path d="M25 2C12.31 2 2 12.31 2 25s10.31 23 23 23 23-10.31 23-23S37.69 2 25 2zm0 2c11.61 0 21 9.39 21 21s-9.39 21-21 21S4 36.61 4 25 13.39 4 25 4zm9.053 8a1.012 1.012 0 0 0-.227.016l-13.695 2.593A1.366 1.366 0 0 0 19 15.955v13.268a1 1 0 0 1-.754.968l-3.445.88-.291.07a3.513 3.513 0 0 0-2.47 3.882C12.311 36.786 13.98 38 15.765 38h.1C18.7 38 21 35.7 21 32.865V22.328c0-.676.485-1.254 1.15-1.371l9.676-1.883A1 1 0 0 1 33 20.06v6.164a1 1 0 0 1-.754.968l-3.445.88-.291.07a3.513 3.513 0 0 0-2.47 3.882C26.311 33.786 27.98 35 29.765 35h.1C32.7 35 35 32.7 35 29.865V13a1 1 0 0 0-.947-1z"></path></symbol><symbol viewBox="0 0 237.31 320.12" id="icon-logo"><path d="M0 163.09L98.31 19.4v96.51H52.56l-4.1 6h49.85V252.7l6 8.77V0L0 152.46v10.63zm233.26-20.04l4.05-6H112.18v183.07l107.35-156.96-92.21.1 30.5 44.59-.01-10.65-19.12-27.95 69.46-.07-89.97 131.54V143.05h115.08z"></path></symbol><symbol viewBox="0 0 40 40" id="icon-pinterest"><path d="M40 20c0 3.6-.9 7-2.7 10-1.8 3.1-4.2 5.5-7.3 7.3-3 1.8-6.4 2.7-10 2.7-1.9 0-3.8-.3-5.7-.8 1-1.6 1.7-3 2-4.3.2-.6.6-2.4 1.4-5.5.3.7 1 1.3 1.9 1.8.9.5 1.9.7 3 .7 2.1 0 4-.6 5.6-1.8 1.6-1.2 2.9-2.8 3.8-4.9.9-2.1 1.4-4.4 1.4-7 0-2-.5-3.8-1.5-5.6-1-1.7-2.5-3.2-4.5-4.2s-4.2-1.6-6.6-1.6c-1.8 0-3.5.3-5.1.8s-2.9 1.2-4 2-2 1.8-2.8 2.9-1.5 2.1-1.9 3.2c-.4 1.2-.6 2.3-.6 3.5 0 1.8.3 3.4 1 4.8s1.7 2.3 3 2.9c.5.2.9 0 1-.5 0-.1.1-.4.2-.8s.2-.7.2-.8c.1-.4 0-.8-.3-1.1-.9-1.1-1.3-2.4-1.3-3.9 0-2.6.9-4.9 2.7-6.8s4.2-2.8 7.1-2.8c2.6 0 4.7.7 6.1 2.1 1.5 1.4 2.2 3.3 2.2 5.5 0 3-.6 5.5-1.8 7.5s-2.7 3.1-4.6 3.1c-1.1 0-1.9-.4-2.6-1.1-.6-.8-.8-1.7-.6-2.7.1-.6.4-1.4.7-2.4s.6-1.9.8-2.7.3-1.4.3-2c0-.9-.2-1.6-.7-2.2-.5-.6-1.1-.9-2-.9-1.1 0-2 .5-2.7 1.5S14 18.1 14 19.6c0 1.3.2 2.3.7 3.2l-2.6 10.9c-.3 1.2-.4 2.8-.3 4.6-3.6-1.6-6.5-4-8.7-7.3S0 24 0 20c0-3.6.9-7 2.7-10S6.9 4.5 10 2.7 16.4 0 20 0s7 .9 10 2.7 5.5 4.2 7.3 7.3c1.8 3 2.7 6.4 2.7 10z"></path></symbol><symbol viewBox="0 0 50 50" id="icon-spotify"><path d="M25 1.99C12.267 1.99 1.99 12.267 1.99 25c0 12.733 10.277 23.01 23.01 23.01 12.733 0 23.01-10.277 23.01-23.01C48.01 12.267 37.733 1.99 25 1.99zm0 2.02c11.65 0 20.99 9.34 20.99 20.99 0 11.65-9.34 20.99-20.99 20.99-11.65 0-20.99-9.34-20.99-20.99C4.01 13.35 13.35 4.01 25 4.01zM21.934 14C16 14 11.536 15.027 11.318 15.078h-.002v.002c-1.6.374-2.61 2-2.238 3.6.372 1.601 1.998 2.609 3.598 2.242h.008l.005-.002c-.113.028.05-.012.17-.037a41.216 41.216 0 0 1 2.486-.422c1.664-.23 3.98-.461 6.589-.461h.062c4.313.006 10.51.668 15.484 3.588h.002v.002a3.01 3.01 0 0 0 4.105-1.072 3.016 3.016 0 0 0-1.067-4.106C34.276 14.747 27.009 14.007 22.004 14h-.07zm0 2h.07c4.805.007 11.748.758 17.502 4.137a.986.986 0 0 1 .357 1.369.992.992 0 0 1-.865.494.993.993 0 0 1-.504-.137l-.004-.002C33.013 18.647 26.504 18.006 21.998 18h-.064c-2.726 0-5.128.24-6.862.48-.867.12-1.568.24-2.056.332a27.35 27.35 0 0 0-.569.114c-.125.026-.116.022-.217.047a.986.986 0 0 1-1.205-.746.984.984 0 0 1 .745-1.2C11.922 16.992 16.232 16 21.934 16zm.058 6.002c-2.506.02-4.67.255-6.25.496s-2.477.459-2.765.541a2.733 2.733 0 0 0-1.873 3.356 2.73 2.73 0 0 0 3.355 1.87l.006-.001h.004l.119-.028a35.347 35.347 0 0 1 2.152-.393 40.441 40.441 0 0 1 5.582-.452c3.864-.034 8.246.533 12.522 3.197.446.28.949.414 1.437.414.906 0 1.797-.46 2.309-1.28a2.732 2.732 0 0 0-.87-3.743c-5.384-3.355-11.16-4.015-15.728-3.977zM22.01 24c4.361-.036 9.715.598 14.654 3.676a.703.703 0 0 1 .229.988.71.71 0 0 1-.612.338.69.69 0 0 1-.375-.107l-.002-.002c-4.691-2.924-9.523-3.538-13.6-3.502a42.32 42.32 0 0 0-7.65.789c-.214.043-.384.078-.504.105l-.142.033c-.036.009.02-.01-.106.028l.01-.004a.71.71 0 0 1-.885-.494.702.702 0 0 1 .494-.885h.002c-.011.003 1.018-.26 2.52-.488A42.38 42.38 0 0 1 22.01 24zm.49 5.002c-4.359.001-7.586 1.06-7.791 1.129a2.514 2.514 0 0 0-1.58 3.162c.433 1.299 1.864 2.02 3.166 1.578l-.016.006c.1-.032.16-.053.463-.135.304-.081.75-.19 1.307-.3a23.341 23.341 0 0 1 4.451-.44c4.337-.001 7.299 1.038 9.613 2.58v-.002c.424.283.91.422 1.385.422.807 0 1.605-.399 2.082-1.115a2.515 2.515 0 0 0-.693-3.465C31.242 29.992 27.14 29 22.5 29.002zm0 2c4.36-.002 7.995.896 11.277 3.084.239.16.298.455.139.693a.49.49 0 0 1-.418.223.48.48 0 0 1-.275-.084v-.002c-2.634-1.755-6.06-2.915-10.723-2.914-1.939 0-3.624.237-4.838.477-.607.12-1.097.24-1.44.332-.342.092-.64.19-.554.162l-.008.002-.008.002a.483.483 0 0 1-.627-.317.487.487 0 0 1 .317-.633c.058-.02 3.127-1.024 7.158-1.025z"></path></symbol></svg>